<svg width="35" height="35" viewBox="0 0 35 35" fill="none" xmlns="http://www.w3.org/2000/svg">
<g clip-path="url(#clip0_101_2)">
<path d="M29.115 31.4356V34.3966C29.115 34.73 28.845 35 28.5116 35H6.48839C6.15502 35 5.88501 34.73 5.88501 34.3966V31.4356C5.88501 28.3289 8.40335 25.8121 11.5107 25.8114C12.6089 25.8106 13.5758 25.2457 14.1324 24.3889C14.6916 23.5295 14.634 22.7823 14.634 22.1783L14.6453 22.1504C11.9376 21.0296 10.0332 18.3619 10.0332 15.2493V15.0132C8.95808 15.0132 8.14767 14.1636 8.14767 13.1623V10.0278C8.12353 8.93645 8.17331 5.08767 10.9534 2.40793C14.1859 -0.707753 19.3086 -0.452827 23.0194 1.214C23.14 1.2683 23.1363 1.44102 23.0141 1.49155L22.0464 1.88978C21.9016 1.94936 21.9325 2.16281 22.0879 2.1794L22.5578 2.22993C24.8076 2.47053 26.8976 3.69236 28.1933 5.72574C28.228 5.7808 28.2182 5.86451 28.1737 5.91203C27.3742 6.75751 26.9277 7.87979 26.9277 9.04657V13.1623C26.9277 14.1843 26.0988 15.0132 25.0769 15.0132H24.9668V15.2493C24.9668 18.3619 23.0624 21.0296 20.3547 22.1504L20.366 22.1783C20.366 22.7648 20.3036 23.5223 20.8676 24.3889C21.4242 25.2457 22.3911 25.8106 23.4892 25.8114C26.5966 25.8121 29.115 28.3289 29.115 31.4356Z" fill="#FFDFBA"/>
<path d="M29.115 31.4356V34.3966C29.115 34.7298 28.8448 35 28.5116 35H6.48839C6.15517 35 5.88501 34.7298 5.88501 34.3966V31.4356C5.88501 28.3289 8.40373 25.8125 11.5104 25.8113C12.6088 25.811 13.5759 25.2454 14.1324 24.3889C16.0748 26.0483 18.924 26.0493 20.8676 24.3889C21.424 25.2454 22.3912 25.811 23.4896 25.8113C26.5962 25.8125 29.115 28.3289 29.115 31.4356Z" fill="#A3E6BF"/>
<path d="M28.193 5.7261C28.228 5.78108 28.2182 5.86435 28.1735 5.91172C27.3743 6.7578 26.9278 7.8797 26.9278 9.04655V13.1623C26.9278 14.0967 26.2238 15.0132 24.9668 15.0132V10.3544C24.9668 8.35493 23.346 6.73412 21.3465 6.73412H13.6535C11.6541 6.73412 10.0332 8.35493 10.0332 10.3544V15.0132C8.9581 15.0132 8.1477 14.1636 8.1477 13.1623V10.0278C8.12356 8.93644 8.17334 5.08766 10.9534 2.40791C14.1857 -0.707841 19.3089 -0.452764 23.0191 1.21421C23.1398 1.26844 23.1366 1.44123 23.0142 1.49161L22.0465 1.88999C21.9018 1.94958 21.9323 2.16279 22.0878 2.17946L22.5578 2.22992C24.808 2.47029 26.8974 3.69212 28.193 5.7261V5.7261Z" fill="#42434D"/>
<path d="M24.9668 15.2493C24.9668 19.3745 21.622 22.716 17.5 22.716C13.6164 22.716 10.0332 19.6968 10.0332 15.0132V10.3544C10.0332 8.35495 11.6541 6.73413 13.6535 6.73413H21.3465C23.346 6.73413 24.9668 8.35495 24.9668 10.3544V15.2493Z" fill="#FFEBD2"/>
<path d="M23.6092 33.7178H21.7991C21.4658 33.7178 21.1957 33.4477 21.1957 33.1145C21.1957 32.7812 21.4658 32.5111 21.7991 32.5111H23.6092C23.9424 32.5111 24.2126 32.7812 24.2126 33.1145C24.2126 33.4477 23.9425 33.7178 23.6092 33.7178Z" fill="white"/>
<path d="M15.8093 20.0708C17.037 20.8388 16.069 22.7224 14.7251 22.1829C11.9621 21.0739 10.0332 18.3814 10.0332 15.2492V10.3544C10.0332 9.59381 10.2678 8.88801 10.6684 8.3053C11.1597 7.59083 12.2959 7.90647 12.2959 8.84593V13.7408C12.2959 16.4945 13.7434 18.7782 15.8093 20.0708Z" fill="#FFF3E4"/>
<path d="M20.4513 23.4167C18.5931 24.1945 16.551 24.2549 14.5487 23.4167C14.651 22.9924 14.634 22.7175 14.634 22.1783L14.6453 22.1504C16.4616 22.9043 18.5349 22.9058 20.3547 22.1504L20.366 22.1783C20.366 22.7178 20.349 22.9925 20.4513 23.4167Z" fill="#FFD6A6"/>
<path d="M14.5496 27.6333C14.2707 27.721 13.9716 27.7694 13.6509 27.7722C10.5363 27.7996 7.99682 30.2624 7.99682 33.3771V33.9441C7.99682 34.5273 7.52408 35 6.94092 35H6.48839C6.15517 35 5.88501 34.7298 5.88501 34.3966V31.4356C5.88501 28.3289 8.40373 25.8125 11.5104 25.8113C12.6088 25.811 13.5759 25.2454 14.1324 24.3889C14.3567 24.5805 14.5968 24.7526 14.8498 24.9034C15.9625 25.5664 15.7852 27.2448 14.5496 27.6333Z" fill="#6FCF97"/>
<path d="M20.4503 27.6333C20.7293 27.721 21.0284 27.7694 21.3491 27.7722C24.4637 27.7996 27.0032 30.2624 27.0032 33.3771V33.9441C27.0032 34.5273 27.4759 35 28.0591 35H28.5116C28.8448 35 29.115 34.7298 29.115 34.3966V31.4356C29.115 28.3289 26.5963 25.8125 23.4896 25.8113C22.3912 25.811 21.424 25.2454 20.8676 24.3889C20.6433 24.5805 20.4031 24.7526 20.1502 24.9034C19.0375 25.5664 19.2148 27.2448 20.4503 27.6333V27.6333Z" fill="#6FCF97"/>
<path d="M23.0141 1.49155C22.1273 1.85652 22.0009 1.93699 21.6936 1.88933C16.7404 1.12153 12.3946 3.17097 10.9187 7.98236V7.98312C10.3666 8.61817 10.0332 9.44781 10.0332 10.3544V13.1844C10.0332 14.4054 8.1477 14.4904 8.1477 13.1623V10.0278C8.12356 8.93645 8.17334 5.08767 10.9534 2.40793C14.186 -0.707753 19.3086 -0.452827 23.0194 1.214C23.1401 1.2683 23.1363 1.44102 23.0141 1.49155V1.49155Z" fill="#4D4E59"/>
</g>
<defs>
<clipPath id="clip0_101_2">
<rect width="35" height="35" fill="white"/>
</clipPath>
</defs>
</svg>
