<svg width="1584" height="396" viewBox="0 0 1584 396" fill="none" xmlns="http://www.w3.org/2000/svg">
<rect width="1584" height="396" fill="#F5F5F5"/>
<g clip-path="url(#clip0_0_1)">
<rect width="1584" height="396" fill="url(#paint0_linear_0_1)"/>
<g filter="url(#filter0_d_0_1)">
<path fill-rule="evenodd" clip-rule="evenodd" d="M1510.87 228.419C1563.78 230.266 1619.33 247.485 1636.87 297.441C1655.51 350.521 1629.69 406.295 1585.59 441.225C1533.86 482.202 1465.09 513.581 1410.13 477.039C1349.54 436.749 1327.2 355.02 1354.53 287.581C1377.66 230.486 1449.3 226.269 1510.87 228.419Z" fill="url(#paint1_linear_0_1)"/>
</g>
<path d="M1485.55 229.869C1486.53 230.388 1487.56 229.264 1486.96 228.333C1483.71 223.281 1480.64 214.779 1485.54 203.831C1493.7 185.573 1498.67 176.117 1498.67 176.117C1498.67 176.117 1501.32 187.152 1508.48 196.964C1515.38 206.407 1519.15 218.284 1513.07 228.178C1512.5 229.107 1513.5 230.202 1514.47 229.706C1522.01 225.852 1530.46 218.123 1531.41 202.742C1531.76 198.042 1531.23 191.462 1528.6 183.159C1525.21 172.635 1521.04 167.724 1518.63 165.615C1517.91 164.984 1516.79 165.543 1516.85 166.5C1517.55 177.855 1513.28 180.736 1510.85 174.243C1509.88 171.649 1509.31 167.162 1509.31 161.699C1509.31 152.603 1506.67 143.24 1500.85 135.632C1499.34 133.653 1497.57 131.804 1495.54 130.228C1494.8 129.657 1493.74 130.231 1493.81 131.159C1494.25 137.325 1493.85 154.997 1478.34 176.108C1464.29 195.692 1469.73 210.732 1471.67 214.805C1475.36 222.609 1480.52 227.192 1485.55 229.869Z" fill="#9EDEC6" fill-opacity="0.25"/>
<path d="M1425.41 78.0781C1425.41 80.2266 1423.27 82.375 1421.12 82.375C1423.27 82.375 1425.41 84.5234 1425.41 86.6719C1425.41 84.5234 1427.56 82.375 1429.71 82.375C1427.56 82.375 1425.41 80.2266 1425.41 78.0781Z" fill="#9EDEC6" fill-opacity="0.25"/>
<path d="M1418.97 123.195C1418.97 125.344 1416.82 127.492 1414.67 127.492C1416.82 127.492 1418.97 129.641 1418.97 131.789C1418.97 129.641 1421.12 127.492 1423.27 127.492C1421.12 127.492 1418.97 125.344 1418.97 123.195Z" fill="#9EDEC6" fill-opacity="0.25"/>
<path d="M1556.47 222.023C1556.47 224.172 1554.32 226.32 1552.17 226.32C1554.32 226.32 1556.47 228.469 1556.47 230.617C1556.47 228.469 1558.62 226.32 1560.77 226.32C1558.62 226.32 1556.47 224.172 1556.47 222.023Z" fill="#9EDEC6" fill-opacity="0.25"/>
<path d="M1545.73 232.766C1545.73 234.914 1543.58 237.062 1541.43 237.062C1543.58 237.062 1545.73 239.211 1545.73 241.359C1545.73 239.211 1547.88 237.062 1550.02 237.062C1547.88 237.062 1545.73 234.914 1545.73 232.766Z" fill="#9EDEC6" fill-opacity="0.25"/>
<path d="M1537.13 215.578C1537.13 217.727 1534.98 219.875 1532.84 219.875C1534.98 219.875 1537.13 222.023 1537.13 224.172C1537.13 222.023 1539.28 219.875 1541.43 219.875C1539.28 219.875 1537.13 217.727 1537.13 215.578Z" fill="#9EDEC6" fill-opacity="0.25"/>
<path d="M1380.3 99.5625C1380.3 101.711 1378.15 103.859 1376 103.859C1378.15 103.859 1380.3 106.008 1380.3 108.156C1380.3 106.008 1382.45 103.859 1384.59 103.859C1382.45 103.859 1380.3 101.711 1380.3 99.5625Z" fill="#9EDEC6" fill-opacity="0.25"/>
<path d="M1541.43 65.1875C1541.43 67.3359 1539.28 69.4844 1537.13 69.4844C1539.28 69.4844 1541.43 71.6328 1541.43 73.7812C1541.43 71.6328 1543.58 69.4844 1545.73 69.4844C1543.58 69.4844 1541.43 67.3359 1541.43 65.1875Z" fill="#9EDEC6" fill-opacity="0.25"/>
<path d="M1449.05 86.6719C1449.05 88.8203 1446.9 90.9688 1444.75 90.9688C1446.9 90.9688 1449.05 93.1172 1449.05 95.2656C1449.05 93.1172 1451.2 90.9688 1453.34 90.9688C1451.2 90.9688 1449.05 88.8203 1449.05 86.6719Z" fill="#9EDEC6" fill-opacity="0.25"/>
<path d="M1466.23 48C1466.23 50.1484 1464.09 52.2969 1461.94 52.2969C1464.09 52.2969 1466.23 54.4453 1466.23 56.5938C1466.23 54.4453 1468.38 52.2969 1470.53 52.2969C1468.38 52.2969 1466.23 50.1484 1466.23 48Z" fill="#9EDEC6" fill-opacity="0.25"/>
<path d="M1522.09 140.383C1522.09 142.531 1519.95 144.68 1517.8 144.68C1519.95 144.68 1522.09 146.828 1522.09 148.977C1522.09 146.828 1524.24 144.68 1526.39 144.68C1524.24 144.68 1522.09 142.531 1522.09 140.383Z" fill="#9EDEC6" fill-opacity="0.25"/>
<path d="M1573.66 123.195C1573.66 127.492 1571.51 129.641 1567.21 129.641C1571.51 129.641 1573.66 131.789 1573.66 136.086C1573.66 131.789 1575.8 129.641 1580.1 129.641C1575.8 129.641 1573.66 127.492 1573.66 123.195Z" fill="#9EDEC6" fill-opacity="0.25"/>
<path d="M1556.47 153.273C1556.47 160.434 1552.89 164.016 1545.73 164.016C1552.89 164.016 1556.47 167.597 1556.47 174.758C1556.47 167.597 1560.05 164.016 1567.21 164.016C1560.05 164.016 1556.47 160.434 1556.47 153.273Z" fill="#9EDEC6" fill-opacity="0.25"/>
<path d="M1577.95 95.2656C1577.95 99.5625 1575.8 101.711 1571.51 101.711C1575.8 101.711 1577.95 103.859 1577.95 108.156C1577.95 103.859 1580.1 101.711 1584.4 101.711C1580.1 101.711 1577.95 99.5625 1577.95 95.2656Z" fill="#9EDEC6" fill-opacity="0.25"/>
<path d="M1556.47 194.094C1556.47 198.391 1554.32 200.539 1550.02 200.539C1554.32 200.539 1556.47 202.688 1556.47 206.984C1556.47 202.688 1558.62 200.539 1562.91 200.539C1558.62 200.539 1556.47 198.391 1556.47 194.094Z" fill="#9EDEC6" fill-opacity="0.25"/>
<path d="M1442.6 65.1875C1442.6 69.4844 1440.45 71.6328 1436.16 71.6328C1440.45 71.6328 1442.6 73.7812 1442.6 78.0781C1442.6 73.7812 1444.75 71.6328 1449.05 71.6328C1444.75 71.6328 1442.6 69.4844 1442.6 65.1875Z" fill="#9EDEC6" fill-opacity="0.25"/>
<path d="M1410.38 209.133C1410.38 213.43 1408.23 215.578 1403.93 215.578C1408.23 215.578 1410.38 217.727 1410.38 222.023C1410.38 217.727 1412.52 215.578 1416.82 215.578C1412.52 215.578 1410.38 213.43 1410.38 209.133Z" fill="#9EDEC6" fill-opacity="0.25"/>
<path d="M1384.59 157.57C1384.59 161.867 1382.45 164.016 1378.15 164.016C1382.45 164.016 1384.59 166.164 1384.59 170.461C1384.59 166.164 1386.74 164.016 1391.04 164.016C1386.74 164.016 1384.59 161.867 1384.59 157.57Z" fill="#9EDEC6" fill-opacity="0.25"/>
<path d="M602.3 167.378C602.3 166.874 602.79 165.712 603.77 163.892L606.206 159.44L607.55 159.902L605.828 169.352C603.476 169.352 602.3 168.694 602.3 167.378ZM596.84 167.378C596.84 166.874 597.33 165.712 598.31 163.892L600.746 159.44L602.09 159.902L600.368 169.352C598.016 169.352 596.84 168.694 596.84 167.378ZM641.945 188L636.149 165.614L630.143 188H626.237L618.887 159.44H622.373L628.253 182.96L634.553 159.44H637.997L643.919 182.96L650.177 159.44H653.537L645.851 188H641.945ZM663.309 188.588C660.789 188.588 658.703 187.706 657.051 185.942C655.427 184.178 654.615 181.588 654.615 178.172C654.615 174.756 655.581 171.942 657.513 169.73C659.445 167.518 661.951 166.412 665.031 166.412C666.991 166.412 668.573 167.014 669.777 168.218C670.981 169.394 671.583 170.878 671.583 172.67C671.583 174.434 670.659 176.058 668.811 177.542C666.991 179.026 664.331 179.768 660.831 179.768C659.907 179.768 658.927 179.726 657.891 179.642C658.087 181.63 658.689 183.142 659.697 184.178C660.733 185.214 661.979 185.732 663.435 185.732C665.871 185.732 667.901 184.976 669.525 183.464L671.037 185.522C668.909 187.566 666.333 188.588 663.309 188.588ZM664.905 169.268C662.973 169.268 661.363 169.954 660.075 171.326C658.815 172.698 658.073 174.518 657.849 176.786C658.773 176.926 659.795 176.996 660.915 176.996C663.323 176.996 665.171 176.548 666.459 175.652C667.747 174.756 668.391 173.72 668.391 172.544C668.391 171.676 668.069 170.92 667.425 170.276C666.809 169.604 665.969 169.268 664.905 169.268ZM701.754 185.984C699.738 187.72 697.386 188.588 694.698 188.588C692.038 188.588 689.826 187.692 688.062 185.9C686.326 184.108 685.458 181.504 685.458 178.088C685.458 174.644 686.326 171.844 688.062 169.688C689.826 167.504 692.262 166.412 695.37 166.412C697.302 166.412 699.094 166.916 700.746 167.924L699.948 170.486C698.464 169.674 696.966 169.268 695.454 169.268C693.382 169.268 691.73 170.052 690.498 171.62C689.266 173.188 688.65 175.288 688.65 177.92C688.65 180.524 689.21 182.484 690.33 183.8C691.478 185.088 692.934 185.732 694.698 185.732C696.938 185.732 698.87 185.06 700.494 183.716L701.754 185.984ZM706.723 185.522C705.183 183.45 704.413 180.776 704.413 177.5C704.413 174.224 705.183 171.564 706.723 169.52C708.263 167.448 710.559 166.412 713.611 166.412C716.691 166.412 719.015 167.448 720.583 169.52C722.151 171.564 722.935 174.224 722.935 177.5C722.935 180.776 722.151 183.45 720.583 185.522C719.015 187.566 716.691 188.588 713.611 188.588C710.559 188.588 708.263 187.566 706.723 185.522ZM709.117 171.578C708.109 173.09 707.605 175.064 707.605 177.5C707.605 179.936 708.109 181.924 709.117 183.464C710.125 184.976 711.637 185.732 713.653 185.732C715.669 185.732 717.181 184.976 718.189 183.464C719.225 181.924 719.743 179.936 719.743 177.5C719.743 175.064 719.225 173.09 718.189 171.578C717.181 170.038 715.669 169.268 713.653 169.268C711.637 169.268 710.125 170.038 709.117 171.578ZM728.185 167H731.377V179.768C731.377 183.744 732.791 185.732 735.619 185.732C737.243 185.732 738.713 184.906 740.029 183.254C741.373 181.574 742.087 179.264 742.171 176.324V167H745.363V183.8L745.783 188L743.011 188.21L742.171 183.884C741.331 185.396 740.267 186.558 738.979 187.37C737.691 188.182 736.389 188.588 735.073 188.588C730.481 188.588 728.185 185.648 728.185 179.768V167ZM752.097 158.6H755.289V183.38C755.289 184.92 755.919 185.69 757.179 185.69C757.991 185.69 758.789 185.41 759.573 184.85L760.833 187.118C759.293 188.098 757.837 188.588 756.465 188.588C755.093 188.588 754.015 188.21 753.231 187.454C752.475 186.698 752.097 185.34 752.097 183.38V158.6ZM770.102 188.588C767.694 188.588 765.72 187.678 764.18 185.858C762.64 184.038 761.87 181.42 761.87 178.004C761.87 174.56 762.836 171.774 764.768 169.646C766.728 167.49 769.206 166.412 772.202 166.412C773.686 166.412 775.184 166.678 776.696 167.21V158.6H779.888V183.8L780.308 188L777.536 188.21L776.822 184.43C775.254 187.202 773.014 188.588 770.102 188.588ZM765.062 177.92C765.062 180.44 765.594 182.372 766.658 183.716C767.722 185.06 769.08 185.732 770.732 185.732C772.412 185.732 773.826 184.906 774.974 183.254C776.122 181.574 776.696 179.208 776.696 176.156V170.318C775.296 169.618 773.798 169.268 772.202 169.268C770.13 169.268 768.422 170.08 767.078 171.704C765.734 173.3 765.062 175.372 765.062 177.92ZM804.772 188.588C802.252 188.588 800.166 187.706 798.514 185.942C796.89 184.178 796.078 181.588 796.078 178.172C796.078 174.756 797.044 171.942 798.976 169.73C800.908 167.518 803.414 166.412 806.494 166.412C808.454 166.412 810.036 167.014 811.24 168.218C812.444 169.394 813.046 170.878 813.046 172.67C813.046 174.434 812.122 176.058 810.274 177.542C808.454 179.026 805.794 179.768 802.294 179.768C801.37 179.768 800.39 179.726 799.354 179.642C799.55 181.63 800.152 183.142 801.16 184.178C802.196 185.214 803.442 185.732 804.898 185.732C807.334 185.732 809.364 184.976 810.988 183.464L812.5 185.522C810.372 187.566 807.796 188.588 804.772 188.588ZM806.368 169.268C804.436 169.268 802.826 169.954 801.538 171.326C800.278 172.698 799.536 174.518 799.312 176.786C800.236 176.926 801.258 176.996 802.378 176.996C804.786 176.996 806.634 176.548 807.922 175.652C809.21 174.756 809.854 173.72 809.854 172.544C809.854 171.676 809.532 170.92 808.888 170.276C808.272 169.604 807.432 169.268 806.368 169.268ZM818.395 162.422C818.059 162.03 817.891 161.54 817.891 160.952C817.891 160.364 818.059 159.888 818.395 159.524C818.731 159.132 819.221 158.936 819.865 158.936C820.509 158.936 821.013 159.132 821.377 159.524C821.741 159.916 821.923 160.392 821.923 160.952C821.923 161.512 821.741 161.988 821.377 162.38C821.013 162.772 820.509 162.968 819.865 162.968C819.221 162.968 818.731 162.786 818.395 162.422ZM818.311 188V167H821.503V188H818.311ZM826.495 169.73V167H829.687L830.695 160.7H832.879V167H837.793V169.73H832.879V183.422C832.879 184.962 833.509 185.732 834.769 185.732C835.721 185.732 836.757 185.326 837.877 184.514L839.053 186.656C837.429 187.944 835.847 188.588 834.307 188.588C832.767 188.588 831.605 188.224 830.821 187.496C830.065 186.74 829.687 185.382 829.687 183.422V169.73H826.495ZM860.14 188H856.948V175.232C856.948 171.256 855.534 169.268 852.706 169.268C851.082 169.268 849.598 170.108 848.254 171.788C846.938 173.468 846.238 175.778 846.154 178.718V188H842.962V158.6H846.154V171.074C846.994 169.562 848.044 168.414 849.304 167.63C850.592 166.818 851.908 166.412 853.252 166.412C857.844 166.412 860.14 169.352 860.14 175.232V188ZM873.883 188.588C871.363 188.588 869.277 187.706 867.625 185.942C866.001 184.178 865.189 181.588 865.189 178.172C865.189 174.756 866.155 171.942 868.087 169.73C870.019 167.518 872.525 166.412 875.605 166.412C877.565 166.412 879.147 167.014 880.351 168.218C881.555 169.394 882.157 170.878 882.157 172.67C882.157 174.434 881.233 176.058 879.385 177.542C877.565 179.026 874.905 179.768 871.405 179.768C870.481 179.768 869.501 179.726 868.465 179.642C868.661 181.63 869.263 183.142 870.271 184.178C871.307 185.214 872.553 185.732 874.009 185.732C876.445 185.732 878.475 184.976 880.099 183.464L881.611 185.522C879.483 187.566 876.907 188.588 873.883 188.588ZM875.479 169.268C873.547 169.268 871.937 169.954 870.649 171.326C869.389 172.698 868.647 174.518 868.423 176.786C869.347 176.926 870.369 176.996 871.489 176.996C873.897 176.996 875.745 176.548 877.033 175.652C878.321 174.756 878.965 173.72 878.965 172.544C878.965 171.676 878.643 170.92 877.999 170.276C877.383 169.604 876.543 169.268 875.479 169.268ZM890.405 188H887.213V171.2L886.793 167L889.565 166.79L890.405 171.83C891.245 170.094 892.309 168.778 893.597 167.882C894.885 166.986 896.285 166.538 897.797 166.538L898.007 169.73C893.079 170.122 890.545 173.888 890.405 181.028V188ZM922.222 167H925.246L930.034 183.044L934.57 167H937.93L932.008 188H928.438L923.734 172.502L919.03 188H915.46L909.538 167H912.898L917.434 183.044L922.222 167ZM948.685 188.588C946.277 188.588 944.303 187.678 942.763 185.858C941.223 184.038 940.453 181.42 940.453 178.004C940.453 174.56 941.419 171.774 943.351 169.646C945.311 167.49 947.733 166.412 950.617 166.412C953.529 166.412 956.147 167.224 958.471 168.848V183.8L958.891 188L956.119 188.21L955.405 184.43C953.837 187.202 951.597 188.588 948.685 188.588ZM943.645 177.92C943.645 180.44 944.177 182.372 945.241 183.716C946.305 185.06 947.663 185.732 949.315 185.732C950.995 185.732 952.409 184.906 953.557 183.254C954.705 181.574 955.279 179.208 955.279 176.156V170.318C953.879 169.618 952.381 169.268 950.785 169.268C948.713 169.268 947.005 170.08 945.661 171.704C944.317 173.3 943.645 175.372 943.645 177.92ZM963.488 169.73V167H966.68L967.688 160.7H969.872V167H974.786V169.73H969.872V183.422C969.872 184.962 970.502 185.732 971.762 185.732C972.714 185.732 973.75 185.326 974.87 184.514L976.046 186.656C974.422 187.944 972.84 188.588 971.3 188.588C969.76 188.588 968.598 188.224 967.814 187.496C967.058 186.74 966.68 185.382 966.68 183.422V169.73H963.488ZM994.36 185.984C992.344 187.72 989.992 188.588 987.304 188.588C984.644 188.588 982.432 187.692 980.668 185.9C978.932 184.108 978.064 181.504 978.064 178.088C978.064 174.644 978.932 171.844 980.668 169.688C982.432 167.504 984.868 166.412 987.976 166.412C989.908 166.412 991.7 166.916 993.352 167.924L992.554 170.486C991.07 169.674 989.572 169.268 988.06 169.268C985.988 169.268 984.336 170.052 983.104 171.62C981.872 173.188 981.256 175.288 981.256 177.92C981.256 180.524 981.816 182.484 982.936 183.8C984.084 185.088 985.54 185.732 987.304 185.732C989.544 185.732 991.476 185.06 993.1 183.716L994.36 185.984ZM1015.88 188H1012.68V175.232C1012.68 171.256 1011.27 169.268 1008.44 169.268C1006.82 169.268 1005.33 170.108 1003.99 171.788C1002.67 173.468 1001.97 175.778 1001.89 178.718V188H998.698V158.6H1001.89V171.074C1002.73 169.562 1003.78 168.414 1005.04 167.63C1006.33 166.818 1007.64 166.412 1008.99 166.412C1013.58 166.412 1015.88 169.352 1015.88 175.232V188ZM1033.4 162.422C1033.06 162.03 1032.9 161.54 1032.9 160.952C1032.9 160.364 1033.06 159.888 1033.4 159.524C1033.74 159.132 1034.23 158.936 1034.87 158.936C1035.51 158.936 1036.02 159.132 1036.38 159.524C1036.75 159.916 1036.93 160.392 1036.93 160.952C1036.93 161.512 1036.75 161.988 1036.38 162.38C1036.02 162.772 1035.51 162.968 1034.87 162.968C1034.23 162.968 1033.74 162.786 1033.4 162.422ZM1033.32 188V167H1036.51V188H1033.32ZM1041.5 169.73V167H1044.69L1045.7 160.7H1047.88V167H1052.8V169.73H1047.88V183.422C1047.88 184.962 1048.51 185.732 1049.77 185.732C1050.73 185.732 1051.76 185.326 1052.88 184.514L1054.06 186.656C1052.43 187.944 1050.85 188.588 1049.31 188.588C1047.77 188.588 1046.61 188.224 1045.83 187.496C1045.07 186.74 1044.69 185.382 1044.69 183.422V169.73H1041.5ZM1085.64 188H1082.45V175.232C1082.45 171.256 1081.04 169.268 1078.21 169.268C1076.59 169.268 1075.1 170.108 1073.76 171.788C1072.44 173.468 1071.74 175.778 1071.66 178.718V188H1068.47V158.6H1071.66V171.074C1072.5 169.562 1073.55 168.414 1074.81 167.63C1076.1 166.818 1077.41 166.412 1078.76 166.412C1083.35 166.412 1085.64 169.352 1085.64 175.232V188ZM1098.92 188.588C1096.52 188.588 1094.54 187.678 1093 185.858C1091.46 184.038 1090.69 181.42 1090.69 178.004C1090.69 174.56 1091.66 171.774 1093.59 169.646C1095.55 167.49 1097.97 166.412 1100.86 166.412C1103.77 166.412 1106.39 167.224 1108.71 168.848V183.8L1109.13 188L1106.36 188.21L1105.64 184.43C1104.08 187.202 1101.84 188.588 1098.92 188.588ZM1093.88 177.92C1093.88 180.44 1094.42 182.372 1095.48 183.716C1096.54 185.06 1097.9 185.732 1099.55 185.732C1101.23 185.732 1102.65 184.906 1103.8 183.254C1104.94 181.574 1105.52 179.208 1105.52 176.156V170.318C1104.12 169.618 1102.62 169.268 1101.02 169.268C1098.95 169.268 1097.24 170.08 1095.9 171.704C1094.56 173.3 1093.88 175.372 1093.88 177.92ZM1125.87 166.412C1128.27 166.412 1130.25 167.322 1131.79 169.142C1133.33 170.962 1134.1 173.594 1134.1 177.038C1134.1 180.454 1133.12 183.24 1131.16 185.396C1129.23 187.524 1126.76 188.588 1123.77 188.588C1122.28 188.588 1120.78 188.322 1119.27 187.79V197.45H1116.08V171.2L1115.66 167L1118.43 166.79L1119.15 170.654C1120.71 167.826 1122.95 166.412 1125.87 166.412ZM1130.91 177.122C1130.91 174.574 1130.37 172.628 1129.31 171.284C1128.25 169.94 1126.89 169.268 1125.24 169.268C1123.61 169.268 1122.23 170.066 1121.08 171.662C1119.93 173.258 1119.33 175.54 1119.27 178.508V184.556C1120.73 185.34 1122.23 185.732 1123.77 185.732C1125.84 185.732 1127.55 184.934 1128.89 183.338C1130.23 181.714 1130.91 179.642 1130.91 177.122ZM1149.57 166.412C1151.98 166.412 1153.95 167.322 1155.49 169.142C1157.03 170.962 1157.8 173.594 1157.8 177.038C1157.8 180.454 1156.82 183.24 1154.86 185.396C1152.93 187.524 1150.47 188.588 1147.47 188.588C1145.99 188.588 1144.49 188.322 1142.98 187.79V197.45H1139.79V171.2L1139.37 167L1142.14 166.79L1142.85 170.654C1144.42 167.826 1146.66 166.412 1149.57 166.412ZM1154.61 177.122C1154.61 174.574 1154.08 172.628 1153.02 171.284C1151.95 169.94 1150.59 169.268 1148.94 169.268C1147.32 169.268 1145.93 170.066 1144.78 171.662C1143.64 173.258 1143.03 175.54 1142.98 178.508V184.556C1144.43 185.34 1145.93 185.732 1147.47 185.732C1149.54 185.732 1151.25 184.934 1152.6 183.338C1153.94 181.714 1154.61 179.642 1154.61 177.122ZM1170.51 188.588C1167.99 188.588 1165.9 187.706 1164.25 185.942C1162.63 184.178 1161.81 181.588 1161.81 178.172C1161.81 174.756 1162.78 171.942 1164.71 169.73C1166.64 167.518 1169.15 166.412 1172.23 166.412C1174.19 166.412 1175.77 167.014 1176.98 168.218C1178.18 169.394 1178.78 170.878 1178.78 172.67C1178.78 174.434 1177.86 176.058 1176.01 177.542C1174.19 179.026 1171.53 179.768 1168.03 179.768C1167.11 179.768 1166.13 179.726 1165.09 179.642C1165.29 181.63 1165.89 183.142 1166.9 184.178C1167.93 185.214 1169.18 185.732 1170.63 185.732C1173.07 185.732 1175.1 184.976 1176.72 183.464L1178.24 185.522C1176.11 187.566 1173.53 188.588 1170.51 188.588ZM1172.1 169.268C1170.17 169.268 1168.56 169.954 1167.27 171.326C1166.01 172.698 1165.27 174.518 1165.05 176.786C1165.97 176.926 1166.99 176.996 1168.11 176.996C1170.52 176.996 1172.37 176.548 1173.66 175.652C1174.95 174.756 1175.59 173.72 1175.59 172.544C1175.59 171.676 1175.27 170.92 1174.62 170.276C1174.01 169.604 1173.17 169.268 1172.1 169.268ZM1194.13 166.412C1198.72 166.412 1201.02 169.352 1201.02 175.232V188H1197.82V175.232C1197.82 171.256 1196.41 169.268 1193.58 169.268C1191.96 169.268 1190.47 170.108 1189.13 171.788C1187.81 173.468 1187.11 175.778 1187.03 178.718V188H1183.84V171.2L1183.42 167L1186.19 166.79L1186.99 171.116C1187.86 169.604 1188.93 168.442 1190.22 167.63C1191.51 166.818 1192.81 166.412 1194.13 166.412ZM621.41 234.522C619.87 232.45 619.1 229.776 619.1 226.5C619.1 223.224 619.87 220.564 621.41 218.52C622.95 216.448 625.246 215.412 628.298 215.412C631.378 215.412 633.702 216.448 635.27 218.52C636.838 220.564 637.622 223.224 637.622 226.5C637.622 229.776 636.838 232.45 635.27 234.522C633.702 236.566 631.378 237.588 628.298 237.588C625.246 237.588 622.95 236.566 621.41 234.522ZM623.804 220.578C622.796 222.09 622.292 224.064 622.292 226.5C622.292 228.936 622.796 230.924 623.804 232.464C624.812 233.976 626.324 234.732 628.34 234.732C630.356 234.732 631.868 233.976 632.876 232.464C633.912 230.924 634.43 228.936 634.43 226.5C634.43 224.064 633.912 222.09 632.876 220.578C631.868 219.038 630.356 218.268 628.34 218.268C626.324 218.268 624.812 219.038 623.804 220.578ZM646.485 237H643.293V220.2L642.873 216L645.645 215.79L646.485 220.83C647.325 219.094 648.389 217.778 649.677 216.882C650.965 215.986 652.365 215.538 653.877 215.538L654.087 218.73C649.159 219.122 646.625 222.888 646.485 230.028V237ZM671.33 207.6V219.444C672.87 216.756 675.138 215.412 678.134 215.412C680.486 215.412 682.404 216.322 683.888 218.142C685.4 219.962 686.156 222.594 686.156 226.038C686.156 229.454 685.176 232.24 683.216 234.396C681.284 236.524 678.918 237.588 676.118 237.588C673.318 237.588 671.288 236.804 670.028 235.236C668.768 233.64 668.138 231.484 668.138 228.768V207.6H671.33ZM682.964 226.08C682.964 223.532 682.488 221.6 681.536 220.284C680.584 218.94 679.24 218.268 677.504 218.268C675.796 218.268 674.354 219.038 673.178 220.578C672.002 222.118 671.386 224.484 671.33 227.676V228.768C671.33 230.532 671.694 231.974 672.422 233.094C673.178 234.186 674.312 234.732 675.824 234.732C677.896 234.732 679.604 233.934 680.948 232.338C682.292 230.714 682.964 228.628 682.964 226.08ZM698.828 237.588C696.308 237.588 694.222 236.706 692.57 234.942C690.946 233.178 690.134 230.588 690.134 227.172C690.134 223.756 691.1 220.942 693.032 218.73C694.964 216.518 697.47 215.412 700.55 215.412C702.51 215.412 704.092 216.014 705.296 217.218C706.5 218.394 707.102 219.878 707.102 221.67C707.102 223.434 706.178 225.058 704.33 226.542C702.51 228.026 699.85 228.768 696.35 228.768C695.426 228.768 694.446 228.726 693.41 228.642C693.606 230.63 694.208 232.142 695.216 233.178C696.252 234.214 697.498 234.732 698.954 234.732C701.39 234.732 703.42 233.976 705.044 232.464L706.556 234.522C704.428 236.566 701.852 237.588 698.828 237.588ZM700.424 218.268C698.492 218.268 696.882 218.954 695.594 220.326C694.334 221.698 693.592 223.518 693.368 225.786C694.292 225.926 695.314 225.996 696.434 225.996C698.842 225.996 700.69 225.548 701.978 224.652C703.266 223.756 703.91 222.72 703.91 221.544C703.91 220.676 703.588 219.92 702.944 219.276C702.328 218.604 701.488 218.268 700.424 218.268ZM729.21 237.588C726.802 237.588 724.828 236.678 723.288 234.858C721.748 233.038 720.978 230.42 720.978 227.004C720.978 223.56 721.944 220.774 723.876 218.646C725.836 216.49 728.258 215.412 731.142 215.412C734.054 215.412 736.672 216.224 738.996 217.848V232.8L739.416 237L736.644 237.21L735.93 233.43C734.362 236.202 732.122 237.588 729.21 237.588ZM724.17 226.92C724.17 229.44 724.702 231.372 725.766 232.716C726.83 234.06 728.188 234.732 729.84 234.732C731.52 234.732 732.934 233.906 734.082 232.254C735.23 230.574 735.804 228.208 735.804 225.156V219.318C734.404 218.618 732.906 218.268 731.31 218.268C729.238 218.268 727.53 219.08 726.186 220.704C724.842 222.3 724.17 224.372 724.17 226.92ZM766.651 215.412C769.059 215.412 771.033 216.322 772.573 218.142C774.113 219.962 774.883 222.594 774.883 226.038C774.883 229.454 773.903 232.24 771.943 234.396C770.011 236.524 767.547 237.588 764.551 237.588C763.067 237.588 761.569 237.322 760.057 236.79V246.45H756.865V220.2L756.445 216L759.217 215.79L759.931 219.654C761.499 216.826 763.739 215.412 766.651 215.412ZM771.691 226.122C771.691 223.574 771.159 221.628 770.095 220.284C769.031 218.94 767.673 218.268 766.021 218.268C764.397 218.268 763.011 219.066 761.863 220.662C760.715 222.258 760.113 224.54 760.057 227.508V233.556C761.513 234.34 763.011 234.732 764.551 234.732C766.623 234.732 768.331 233.934 769.675 232.338C771.019 230.714 771.691 228.642 771.691 226.122ZM787.124 237.588C784.716 237.588 782.742 236.678 781.202 234.858C779.662 233.038 778.892 230.42 778.892 227.004C778.892 223.56 779.858 220.774 781.79 218.646C783.75 216.49 786.172 215.412 789.056 215.412C791.968 215.412 794.586 216.224 796.91 217.848V232.8L797.33 237L794.558 237.21L793.844 233.43C792.276 236.202 790.036 237.588 787.124 237.588ZM782.084 226.92C782.084 229.44 782.616 231.372 783.68 232.716C784.744 234.06 786.102 234.732 787.754 234.732C789.434 234.732 790.848 233.906 791.996 232.254C793.144 230.574 793.718 228.208 793.718 225.156V219.318C792.318 218.618 790.82 218.268 789.224 218.268C787.152 218.268 785.444 219.08 784.1 220.704C782.756 222.3 782.084 224.372 782.084 226.92ZM807.471 237H804.279V220.2L803.859 216L806.631 215.79L807.471 220.83C808.311 219.094 809.375 217.778 810.663 216.882C811.951 215.986 813.351 215.538 814.863 215.538L815.073 218.73C810.145 219.122 807.611 222.888 807.471 230.028V237ZM816.693 218.73V216H819.885L820.893 209.7H823.077V216H827.991V218.73H823.077V232.422C823.077 233.962 823.707 234.732 824.967 234.732C825.919 234.732 826.955 234.326 828.075 233.514L829.251 235.656C827.627 236.944 826.045 237.588 824.505 237.588C822.965 237.588 821.803 237.224 821.019 236.496C820.263 235.74 819.885 234.382 819.885 232.422V218.73H816.693ZM844.289 234.522C842.749 232.45 841.979 229.776 841.979 226.5C841.979 223.224 842.749 220.564 844.289 218.52C845.829 216.448 848.125 215.412 851.177 215.412C854.257 215.412 856.581 216.448 858.149 218.52C859.717 220.564 860.501 223.224 860.501 226.5C860.501 229.776 859.717 232.45 858.149 234.522C856.581 236.566 854.257 237.588 851.177 237.588C848.125 237.588 845.829 236.566 844.289 234.522ZM846.683 220.578C845.675 222.09 845.171 224.064 845.171 226.5C845.171 228.936 845.675 230.924 846.683 232.464C847.691 233.976 849.203 234.732 851.219 234.732C853.235 234.732 854.747 233.976 855.755 232.464C856.791 230.924 857.309 228.936 857.309 226.5C857.309 224.064 856.791 222.09 855.755 220.578C854.747 219.038 853.235 218.268 851.219 218.268C849.203 218.268 847.691 219.038 846.683 220.578ZM864.282 218.73V216H867.012V213.858C867.012 211.478 867.502 209.742 868.482 208.65C869.49 207.558 870.792 207.012 872.388 207.012C874.012 207.012 875.692 207.572 877.428 208.692L876.168 210.96C874.712 210.316 873.578 209.994 872.766 209.994C871.058 209.994 870.204 211.226 870.204 213.69V216H875.034V218.73H870.204V243.72H867.012V218.73H864.282ZM889.68 211.422C889.344 211.03 889.176 210.54 889.176 209.952C889.176 209.364 889.344 208.888 889.68 208.524C890.016 208.132 890.506 207.936 891.15 207.936C891.794 207.936 892.298 208.132 892.662 208.524C893.026 208.916 893.208 209.392 893.208 209.952C893.208 210.512 893.026 210.988 892.662 211.38C892.298 211.772 891.794 211.968 891.15 211.968C890.506 211.968 890.016 211.786 889.68 211.422ZM889.596 237V216H892.788V237H889.596ZM897.781 218.73V216H900.973L901.981 209.7H904.165V216H909.079V218.73H904.165V232.422C904.165 233.962 904.795 234.732 906.055 234.732C907.007 234.732 908.043 234.326 909.163 233.514L910.339 235.656C908.715 236.944 907.133 237.588 905.593 237.588C904.053 237.588 902.891 237.224 902.106 236.496C901.351 235.74 900.973 234.382 900.973 232.422V218.73H897.781ZM913.155 236.958C912.763 236.51 912.567 235.95 912.567 235.278C912.567 234.606 912.763 234.06 913.155 233.64C913.547 233.192 914.107 232.968 914.835 232.968C915.591 232.968 916.165 233.192 916.557 233.64C916.977 234.06 917.187 234.606 917.187 235.278C917.187 235.95 916.977 236.51 916.557 236.958C916.165 237.378 915.591 237.588 914.835 237.588C914.107 237.588 913.547 237.378 913.155 236.958ZM936.085 216.378C936.085 215.874 936.575 214.712 937.555 212.892L939.991 208.44L941.335 208.902L939.613 218.352C937.261 218.352 936.085 217.694 936.085 216.378ZM930.625 216.378C930.625 215.874 931.115 214.712 932.095 212.892L934.531 208.44L935.875 208.902L934.153 218.352C931.801 218.352 930.625 217.694 930.625 216.378Z" fill="black"/>
<path d="M1356.15 40C1350.82 40 1345.53 42.1943 1341.76 45.9625C1339.38 48.3366 1337.64 51.3172 1336.67 54.5303C1334.34 54.97 1332.14 56.107 1330.46 57.7844C1328.27 59.9709 1327 63.0431 1327 66.1352C1327 69.2274 1328.27 72.3006 1330.46 74.4871C1332.65 76.6735 1335.72 77.9464 1338.81 77.9464H1391.71C1393.68 77.9464 1395.65 77.1343 1397.04 75.7387C1398.44 74.3431 1399.25 72.3811 1399.25 70.4074C1399.25 68.4336 1398.44 66.4727 1397.04 65.0771C1395.65 63.69 1393.71 62.8803 1391.75 62.8703C1391.36 59.2943 1389.74 55.8523 1387.2 53.3072C1384.27 50.3764 1380.15 48.6699 1376 48.6699C1375 48.6699 1373.99 48.773 1373.01 48.9673C1372.28 47.8899 1371.46 46.8802 1370.54 45.9625C1366.78 42.1943 1361.48 40 1356.15 40Z" fill="#E0DFDF"/>
<path d="M1298.94 26C1291.64 26 1284.38 29.007 1279.22 34.1708C1275.97 37.4241 1273.57 41.5086 1272.25 45.9117C1269.05 46.5143 1266.04 48.0723 1263.74 50.371C1260.74 53.3672 1259 57.5772 1259 61.8146C1259 66.0519 1260.74 70.2633 1263.74 73.2595C1266.74 76.2558 1270.95 78 1275.18 78H1347.67C1350.37 78 1353.06 76.8871 1354.97 74.9747C1356.89 73.0622 1358 70.3736 1358 67.6689C1358 64.9642 1356.89 62.277 1354.97 60.3645C1353.07 58.4637 1350.41 57.3541 1347.72 57.3404C1347.19 52.44 1344.97 47.7233 1341.49 44.2356C1337.47 40.2193 1331.83 37.8808 1326.15 37.8808C1324.77 37.8808 1323.39 38.0222 1322.04 38.2884C1321.05 36.812 1319.93 35.4284 1318.67 34.1708C1313.5 29.007 1306.25 26 1298.94 26V26Z" fill="white"/>
<path d="M422.367 46C418.827 46 415.308 47.4457 412.804 49.9282C411.227 51.4923 410.066 53.4561 409.422 55.5729C407.874 55.8626 406.413 56.6117 405.298 57.7168C403.846 59.1573 403 61.1814 403 63.2185C403 65.2557 403.846 67.2804 405.298 68.7209C406.751 70.1614 408.793 71 410.847 71H445.991C447.303 71 448.606 70.465 449.533 69.5455C450.46 68.6261 451 67.3335 451 66.0331C451 64.7328 450.46 63.4409 449.533 62.5214C448.612 61.6076 447.319 61.0741 446.015 61.0675C445.761 58.7115 444.685 56.4439 442.994 54.7671C441.047 52.8362 438.31 51.7119 435.557 51.7119C434.888 51.7119 434.221 51.7799 433.565 51.9079C433.086 51.1981 432.54 50.5329 431.93 49.9282C429.426 47.4457 425.907 46 422.367 46Z" fill="#E0DFDF"/>
<path d="M383.151 33C377.822 33 372.525 35.1943 368.757 38.9625C366.383 41.3366 364.635 44.3172 363.666 47.5303C361.337 47.97 359.137 49.107 357.459 50.7844C355.273 52.9709 354 56.0431 354 59.1352C354 62.2274 355.273 65.3006 357.459 67.4871C359.646 69.6735 362.719 70.9464 365.811 70.9464H418.71C420.684 70.9464 422.646 70.1343 424.041 68.7387C425.437 67.3431 426.249 65.3811 426.249 63.4074C426.249 61.4336 425.437 59.4727 424.041 58.0771C422.654 56.69 420.708 55.8803 418.746 55.8703C418.363 52.2943 416.743 48.8523 414.198 46.3072C411.267 43.3764 407.148 41.6699 403.004 41.6699C401.997 41.6699 400.993 41.773 400.007 41.9673C399.285 40.8899 398.462 39.8802 397.545 38.9625C393.776 35.1943 388.48 33 383.151 33V33Z" fill="white"/>
<path d="M59.0156 392.477C69.6946 392.477 78.3516 383.82 78.3516 373.141C78.3516 362.462 69.6946 353.805 59.0156 353.805C48.3367 353.805 39.6797 362.462 39.6797 373.141C39.6797 383.82 48.3367 392.477 59.0156 392.477Z" fill="#E0DFDF"/>
<path d="M80.5 381.734C91.1789 381.734 99.8359 373.077 99.8359 362.398C99.8359 351.719 91.1789 343.062 80.5 343.062C69.8211 343.062 61.1641 351.719 61.1641 362.398C61.1641 373.077 69.8211 381.734 80.5 381.734Z" fill="#E0DFDF"/>
<path d="M28.9375 403.219C39.6164 403.219 48.2734 394.562 48.2734 383.883C48.2734 373.204 39.6164 364.547 28.9375 364.547C18.2586 364.547 9.60156 373.204 9.60156 383.883C9.60156 394.562 18.2586 403.219 28.9375 403.219Z" fill="#E0DFDF"/>
<path d="M101.984 392.477C112.663 392.477 121.32 383.82 121.32 373.141C121.32 362.462 112.663 353.805 101.984 353.805C91.3054 353.805 82.6484 362.462 82.6484 373.141C82.6484 383.82 91.3054 392.477 101.984 392.477Z" fill="#E0DFDF"/>
<path d="M132.062 403.219C142.741 403.219 151.398 394.562 151.398 383.883C151.398 373.204 142.741 364.547 132.062 364.547C121.384 364.547 112.727 373.204 112.727 383.883C112.727 394.562 121.384 403.219 132.062 403.219Z" fill="#E0DFDF"/>
<path d="M80.8587 297.496C74.8968 297.496 71.0232 301.374 71.0232 307.332C71.0232 313.292 71.8632 324.064 80.8587 329.463C89.8542 324.064 90.6943 313.296 90.6943 307.332C90.6964 301.372 86.8228 297.496 80.8587 297.496Z" fill="#3EB489" fill-opacity="0.5"/>
<path d="M80.8587 299.956C77.7026 299.956 75.9409 301.722 75.9409 304.874C75.9409 308.034 76.0978 314.316 80.8587 317.172C85.6196 314.316 85.7765 308.034 85.7765 304.874C85.7786 301.722 84.0169 299.956 80.8587 299.956Z" fill="#225542" fill-opacity="0.8"/>
<path d="M80.5 287.203C86.4327 287.203 91.2422 285.279 91.2422 282.906C91.2422 280.533 86.4327 278.609 80.5 278.609C74.5673 278.609 69.7578 280.533 69.7578 282.906C69.7578 285.279 74.5673 287.203 80.5 287.203Z" fill="#242424"/>
<path d="M64.3932 199.117C58.5602 207.711 53.8121 219.332 53.8121 231.318C53.8121 272.699 66.1055 297.945 66.1055 297.945H80.8588H95.6121C95.6121 297.945 107.905 272.697 107.905 231.318C107.905 219.981 102.921 207.711 96.8883 199.117H64.3932Z" fill="#32926F"/>
<path d="M96.8883 199.117H89.5084C95.5412 207.711 100.528 219.981 100.528 231.318C100.528 272.697 88.2344 297.945 88.2344 297.945H95.6143C95.6143 297.945 107.908 272.697 107.908 231.318C107.908 219.981 102.921 207.711 96.8883 199.117Z" fill="#32926F"/>
<path d="M66.1055 282.569C66.1055 284.546 64.9904 286.206 63.6455 287.663L48.8922 304.874C47.5494 306.333 43.9744 306.853 43.9744 304.874V287.663C43.9744 285.684 47.1842 283.742 48.8922 282.745L63.6455 272.912C63.6455 272.912 66.1055 273.395 66.1055 275.372V282.569Z" fill="#225542"/>
<path d="M63.3254 272.912L60.8804 274.641C60.9621 274.858 61.164 275.095 61.164 275.37V282.571C61.164 284.548 60.0597 286.208 58.717 287.665L43.9701 304.876C43.9701 306.855 47.5472 306.335 48.8922 304.876L63.3232 287.665C64.666 286.208 65.4609 284.548 65.4609 282.571V275.37C65.4609 273.389 63.3254 272.912 63.3254 272.912Z" fill="#225542"/>
<path d="M95.6143 282.569C95.6143 284.546 96.7314 286.206 98.0742 287.663L112.825 304.874C114.168 306.333 117.743 306.853 117.743 304.874V287.663C117.743 285.684 114.533 283.742 112.825 282.745L98.0742 272.912C98.0742 272.912 95.6143 273.395 95.6143 275.372V282.569Z" fill="#225542"/>
<path d="M112.464 282.745L97.8895 272.912C97.8895 272.912 96.16 273.277 95.6572 274.641L107.811 282.745C109.521 283.742 112.727 285.684 112.727 287.663V304.874C114.875 306.333 117.023 306.853 117.023 304.874V287.663C117.023 285.684 114.175 283.742 112.464 282.745Z" fill="#3EB489" fill-opacity="0.25"/>
<path d="M80.8652 307.323C82.225 307.323 83.3273 298.517 83.3273 287.654C83.3273 276.791 82.225 267.985 80.8652 267.985C79.5054 267.985 78.4031 276.791 78.4031 287.654C78.4031 298.517 79.5054 307.323 80.8652 307.323Z" fill="#225542"/>
<path d="M80.8653 250.772C87.656 250.772 93.1608 245.267 93.1608 238.477C93.1608 231.686 87.656 226.181 80.8653 226.181C74.0747 226.181 68.5698 231.686 68.5698 238.477C68.5698 245.267 74.0747 250.772 80.8653 250.772Z" fill="#225542"/>
<path d="M80.8653 248.312C86.2974 248.312 90.7009 243.909 90.7009 238.477C90.7009 233.045 86.2974 228.641 80.8653 228.641C75.4333 228.641 71.0298 233.045 71.0298 238.477C71.0298 243.909 75.4333 248.312 80.8653 248.312Z" fill="#3EB489" fill-opacity="0.25"/>
<path d="M78.3516 409.664C89.0305 409.664 97.6875 401.007 97.6875 390.328C97.6875 379.649 89.0305 370.992 78.3516 370.992C67.6726 370.992 59.0156 379.649 59.0156 390.328C59.0156 401.007 67.6726 409.664 78.3516 409.664Z" fill="white"/>
<path d="M48.2734 401.07C58.9524 401.07 67.6094 392.413 67.6094 381.734C67.6094 371.055 58.9524 362.398 48.2734 362.398C37.5945 362.398 28.9375 371.055 28.9375 381.734C28.9375 392.413 37.5945 401.07 48.2734 401.07Z" fill="white"/>
<path d="M18.1953 373.141C7.51543 373.141 -1.14062 381.797 -1.14062 392.477C-1.14062 397.751 0.977734 402.529 4.40234 406.018C6.99551 407.746 9.65957 409.37 12.3709 410.917C14.21 411.497 16.165 411.812 18.1953 411.812C28.8752 411.812 37.5312 403.156 37.5312 392.477C37.5312 381.797 28.8752 373.141 18.1953 373.141Z" fill="white"/>
<path d="M112.727 401.07C123.406 401.07 132.062 392.413 132.062 381.734C132.062 371.055 123.406 362.398 112.727 362.398C102.048 362.398 93.3906 371.055 93.3906 381.734C93.3906 392.413 102.048 401.07 112.727 401.07Z" fill="white"/>
<path d="M142.805 373.141C132.125 373.141 123.469 381.797 123.469 392.477C123.469 403.156 132.125 411.812 142.805 411.812C144.835 411.812 146.788 411.497 148.627 410.917C151.34 409.365 154.004 407.741 156.598 406.016C160.022 402.527 162.141 397.751 162.141 392.477C162.141 381.797 153.485 373.141 142.805 373.141Z" fill="white"/>
<path d="M82.6484 409.664C93.3274 409.664 101.984 401.007 101.984 390.328C101.984 379.649 93.3274 370.992 82.6484 370.992C71.9695 370.992 63.3125 379.649 63.3125 390.328C63.3125 401.007 71.9695 409.664 82.6484 409.664Z" fill="white"/>
<path d="M80.8589 204.061C86.823 204.061 92.3853 202.4 97.1612 199.551C91.6462 191.076 85.2009 184.536 80.8589 181.93C76.4331 184.585 69.8224 190.88 64.2407 199.362C69.0876 202.323 74.7659 204.061 80.8589 204.061Z" fill="#225542"/>
<path d="M91.1885 202.321C93.2875 201.596 95.2855 200.668 97.1633 199.551C91.6504 191.076 85.2051 184.536 80.8609 181.93C79.4559 182.774 77.8166 184.02 76.0742 185.552C80.6998 189.458 86.0773 195.276 91.1885 202.321Z" fill="#1E513E"/>
</g>
<defs>
<filter id="filter0_d_0_1" x="1339" y="228" width="308" height="273.179" filterUnits="userSpaceOnUse" color-interpolation-filters="sRGB">
<feFlood flood-opacity="0" result="BackgroundImageFix"/>
<feColorMatrix in="SourceAlpha" type="matrix" values="0 0 0 0 0 0 0 0 0 0 0 0 0 0 0 0 0 0 127 0" result="hardAlpha"/>
<feOffset dy="4"/>
<feGaussianBlur stdDeviation="2"/>
<feComposite in2="hardAlpha" operator="out"/>
<feColorMatrix type="matrix" values="0 0 0 0 0 0 0 0 0 0 0 0 0 0 0 0 0 0 0.25 0"/>
<feBlend mode="normal" in2="BackgroundImageFix" result="effect1_dropShadow_0_1"/>
<feBlend mode="normal" in="SourceGraphic" in2="effect1_dropShadow_0_1" result="shape"/>
</filter>
<linearGradient id="paint0_linear_0_1" x1="6.92898e-07" y1="198" x2="1584" y2="198" gradientUnits="userSpaceOnUse">
<stop/>
<stop offset="1" stop-color="#166D3B"/>
</linearGradient>
<linearGradient id="paint1_linear_0_1" x1="1493" y1="228" x2="1493" y2="493.179" gradientUnits="userSpaceOnUse">
<stop stop-color="#166D3B"/>
<stop offset="1"/>
</linearGradient>
<clipPath id="clip0_0_1">
<rect width="1584" height="396" fill="white"/>
</clipPath>
</defs>
</svg>
